<?xml version="1.0" encoding="UTF-8" standalone="no"?>
<svg
   xmlns:dc="http://purl.org/dc/elements/1.1/"
   xmlns:cc="http://creativecommons.org/ns#"
   xmlns:rdf="http://www.w3.org/1999/02/22-rdf-syntax-ns#"
   xmlns:svg="http://www.w3.org/2000/svg"
   xmlns="http://www.w3.org/2000/svg"
   xmlns:sodipodi="http://sodipodi.sourceforge.net/DTD/sodipodi-0.dtd"
   xmlns:inkscape="http://www.inkscape.org/namespaces/inkscape"
   height="134.44757"
   viewBox="0 0 46.402298 35.572587"
   width="175.37877"
   version="1.1"
   id="svg57"
   sodipodi:docname="icon.svg"
   inkscape:version="0.92.2 (5c3e80d, 2017-08-06)"
   inkscape:export-filename="U:\ER-QGIS-Prog\Plugins\SourceRefresher\icon.png"
   inkscape:export-xdpi="29"
   inkscape:export-ydpi="29">
  <metadata
     id="metadata63">
    <rdf:RDF>
      <cc:Work
         rdf:about="">
        <dc:format>image/svg+xml</dc:format>
        <dc:type
           rdf:resource="http://purl.org/dc/dcmitype/StillImage" />
        <dc:title></dc:title>
      </cc:Work>
    </rdf:RDF>
  </metadata>
  <defs
     id="defs61" />
  <sodipodi:namedview
     pagecolor="#ffffff"
     bordercolor="#666666"
     borderopacity="1"
     objecttolerance="10"
     gridtolerance="10"
     guidetolerance="10"
     inkscape:pageopacity="0"
     inkscape:pageshadow="2"
     inkscape:window-width="1920"
     inkscape:window-height="1027"
     id="namedview59"
     showgrid="false"
     inkscape:zoom="1.84375"
     inkscape:cx="-119.33432"
     inkscape:cy="-10.893044"
     inkscape:window-x="1912"
     inkscape:window-y="-8"
     inkscape:window-maximized="1"
     inkscape:current-layer="svg57"
     fit-margin-top="0"
     fit-margin-left="0"
     fit-margin-right="0"
     fit-margin-bottom="0"
     inkscape:pagecheckerboard="false" />
  <linearGradient
     id="a"
     gradientTransform="rotate(43.47495,8.3343766,288.28166)"
     gradientUnits="userSpaceOnUse"
     x1="11.125094"
     x2="6.481286"
     y1="286.60989"
     y2="286.00851">
    <stop
       offset="0"
       stop-color="#bf7b10"
       id="stop2" />
    <stop
       offset="1"
       stop-color="#e8b86d"
       id="stop4" />
  </linearGradient>
  <linearGradient
     id="b"
     gradientTransform="rotate(43.47495,8.3343766,288.28166)"
     gradientUnits="userSpaceOnUse"
     x1="11.509375"
     x2="5.2471313"
     y1="294.75101"
     y2="291.61029">
    <stop
       offset="0"
       stop-color="#e2af61"
       id="stop7" />
    <stop
       offset="1"
       stop-color="#f1d8b2"
       id="stop9" />
  </linearGradient>
  <linearGradient
     id="c"
     gradientTransform="matrix(0.9837838,0,0,1,-0.08938991,0.09453092)"
     gradientUnits="userSpaceOnUse"
     x1="5.0081882"
     x2="0.89769715"
     y1="281.89978"
     y2="280.76587">
    <stop
       offset="0"
       stop-color="#fce94f"
       id="stop12" />
    <stop
       offset="1"
       stop-color="#fce94f"
       stop-opacity=".25742576"
       id="stop14" />
  </linearGradient>
  <linearGradient
     id="d"
     gradientTransform="matrix(0.98378379,0,0,1,-0.08938989,3.004935)"
     gradientUnits="userSpaceOnUse"
     x1="5.0081882"
     x2="0.89769715"
     y1="281.89978"
     y2="280.76587">
    <stop
       offset="0"
       stop-color="#729ece"
       id="stop17" />
    <stop
       offset="1"
       stop-color="#729ece"
       stop-opacity=".51485151"
       id="stop19" />
  </linearGradient>
  <linearGradient
     id="e"
     gradientTransform="matrix(0.98378379,0,0,1,-0.08938989,5.9153515)"
     gradientUnits="userSpaceOnUse"
     x1="5.0081882"
     x2="0.89769715"
     y1="281.89978"
     y2="280.76587">
    <stop
       offset="0"
       stop-color="#ec2d27"
       id="stop22" />
    <stop
       offset="1"
       stop-color="#ef2929"
       stop-opacity=".44554454"
       id="stop24" />
  </linearGradient>
  <g
     transform="matrix(7.5390431,0,0,7.0189997,-10.22426,-16.550692)"
     id="g16">
    <path
       style="fill:#6d97c4"
       inkscape:connector-curvature="0"
       d="m 0.53,1.455 h 5.29 v 4.022 c -1.973,0.87 -3.596,0.76 -5.293,0 z"
       id="path2" />
    <path
       inkscape:connector-curvature="0"
       d="m 0.53,1.244 v 4.18 L 1.06,5.689 1.058,1.243 Z"
       style="color:#000000;line-height:normal;font-family:sans-serif;font-variant-ligatures:normal;font-variant-position:normal;font-variant-caps:normal;font-variant-numeric:normal;font-variant-alternates:normal;font-feature-settings:normal;text-indent:0;text-align:start;text-decoration:none;text-decoration-line:none;text-decoration-style:solid;text-decoration-color:#000000;text-transform:none;text-orientation:mixed;white-space:normal;shape-padding:0;overflow:visible;isolation:auto;mix-blend-mode:normal;solid-color:#000000;fill:#bacee3"
       overflow="visible"
       id="path4" />
    <path
       inkscape:connector-curvature="0"
       d="m 5.822,1.323 v 4.1 L 4.764,5.821 V 1.324 Z"
       style="color:#000000;line-height:normal;font-family:sans-serif;font-variant-ligatures:normal;font-variant-position:normal;font-variant-caps:normal;font-variant-numeric:normal;font-variant-alternates:normal;font-feature-settings:normal;text-indent:0;text-align:start;text-decoration:none;text-decoration-line:none;text-decoration-style:solid;text-decoration-color:#000000;text-transform:none;text-orientation:mixed;white-space:normal;shape-padding:0;overflow:visible;isolation:auto;mix-blend-mode:normal;solid-color:#000000;fill:#55769a"
       overflow="visible"
       id="path6" />
    <path
       style="fill:#415a75"
       inkscape:connector-curvature="0"
       d="M 5.822,1.19 H 6.087 V 5.133 H 5.822 Z m -5.557,0 H 0.53 V 5.133 H 0.264 Z"
       id="path8" />
    <path
       inkscape:connector-curvature="0"
       style="color:#000000;line-height:normal;font-family:sans-serif;font-variant-ligatures:normal;font-variant-position:normal;font-variant-caps:normal;font-variant-numeric:normal;font-variant-alternates:normal;font-feature-settings:normal;text-indent:0;text-align:start;text-decoration:none;text-decoration-line:none;text-decoration-style:solid;text-decoration-color:#000000;text-transform:none;text-orientation:mixed;white-space:normal;shape-padding:0;overflow:visible;isolation:auto;mix-blend-mode:normal;solid-color:#000000;fill:#415a75"
       d="M 0.53,2.46 V 2.91 C 0.74,3.056 0.94,3.136 1.14,3.198 1.66,3.356 2.396,3.44 3.176,3.44 3.956,3.44 4.646,3.353 5.166,3.195 5.406,3.113 5.638,3.045 5.822,2.91 V 2.46 c 0,0.065 -0.046,0.164 -0.17,0.25 C 5.528,2.8 5.339,2.878 5.095,2.952 4.605,3.099 3.935,3.175 3.175,3.175 2.415,3.175 1.701,3.1 1.215,2.952 0.969,2.882 0.779,2.802 0.655,2.712 0.532,2.624 0.529,2.524 0.529,2.462 Z"
       overflow="visible"
       id="path10" />
    <ellipse
       style="fill:#bacee3;stroke:#415a75;stroke-width:0.26499999;stroke-linecap:round;stroke-linejoin:round"
       cx="3.1760001"
       cy="1.191"
       rx="2.779"
       ry="0.79400003"
       id="ellipse12" />
    <path
       inkscape:connector-curvature="0"
       style="color:#000000;line-height:normal;font-family:sans-serif;font-variant-ligatures:normal;font-variant-position:normal;font-variant-caps:normal;font-variant-numeric:normal;font-variant-alternates:normal;font-feature-settings:normal;text-indent:0;text-align:start;text-decoration:none;text-decoration-line:none;text-decoration-style:solid;text-decoration-color:#000000;text-transform:none;text-orientation:mixed;white-space:normal;shape-padding:0;overflow:visible;isolation:auto;mix-blend-mode:normal;solid-color:#000000;fill:#415a75"
       d="m 0.265,5.133 c 0,0.17 0.095,0.328 0.254,0.44 0.155,0.115 0.392,0.21 0.652,0.29 0.52,0.16 1.224,0.223 2.004,0.223 0.78,0 1.474,-0.062 1.998,-0.222 0.26,-0.078 0.494,-0.176 0.653,-0.29 0.156,-0.113 0.26,-0.27 0.26,-0.44 H 5.821 c 0,0 -0.008,0.155 -0.14,0.245 C 5.556,5.469 5.366,5.549 5.121,5.623 4.631,5.771 3.935,5.82 3.175,5.82 2.415,5.82 1.729,5.774 1.242,5.625 1,5.553 0.81,5.473 0.686,5.38 0.563,5.295 0.53,5.196 0.53,5.133 Z M 0.53,3.783 v 0.45 c 0.21,0.146 0.41,0.225 0.612,0.287 0.52,0.158 1.254,0.243 2.034,0.243 0.78,0 1.47,-0.087 1.99,-0.245 0.24,-0.083 0.472,-0.15 0.656,-0.285 v -0.45 c 0,0.065 -0.046,0.164 -0.17,0.25 C 5.528,4.123 5.339,4.201 5.095,4.275 4.605,4.422 3.935,4.498 3.175,4.498 2.415,4.498 1.702,4.423 1.215,4.274 0.971,4.204 0.781,4.124 0.657,4.034 0.533,3.947 0.529,3.847 0.529,3.784 Z"
       overflow="visible"
       id="path14" />
  </g>
  <g
     id="g850"
     transform="translate(-3.4714524,-8.8733331)">
    <path
       d="m 40.774169,31.550219 a 13.850268,9.7556658 0 0 1 -6.925134,8.448654 13.850268,9.7556658 0 0 1 -13.850269,0 13.850268,9.7556658 0 0 1 -6.925134,-8.448655"
       sodipodi:open="true"
       sodipodi:end="3.1415927"
       sodipodi:start="0"
       sodipodi:ry="9.7556658"
       sodipodi:rx="13.850268"
       sodipodi:cy="31.550219"
       sodipodi:cx="26.923901"
       sodipodi:type="arc"
       id="path923"
       style="opacity:1;vector-effect:none;fill:none;fill-opacity:1;fill-rule:nonzero;stroke:#fa8e32;stroke-width:6.23448849;stroke-linecap:round;stroke-linejoin:round;stroke-miterlimit:4;stroke-dasharray:none;stroke-dashoffset:0;stroke-opacity:1;paint-order:normal" />
    <path
       inkscape:connector-curvature="0"
       id="path925"
       d="m 6.6236768,32.028281 5.6266722,-4.419922 7.273515,2.886481"
       style="fill:none;stroke:#fa8e32;stroke-width:6.23448849;stroke-linecap:round;stroke-linejoin:miter;stroke-miterlimit:4;stroke-dasharray:none;stroke-opacity:1" />
    <path
       transform="scale(-1)"
       style="opacity:1;vector-effect:none;fill:none;fill-opacity:1;fill-rule:nonzero;stroke:#fa8e32;stroke-width:6.23448849;stroke-linecap:round;stroke-linejoin:round;stroke-miterlimit:4;stroke-dasharray:none;stroke-dashoffset:0;stroke-opacity:1;paint-order:normal"
       id="path931"
       sodipodi:type="arc"
       sodipodi:cx="-26.426168"
       sodipodi:cy="-21.769033"
       sodipodi:rx="13.850268"
       sodipodi:ry="9.7556658"
       sodipodi:start="0"
       sodipodi:end="3.1415927"
       sodipodi:open="true"
       d="m -12.5759,-21.769033 a 13.850268,9.7556658 0 0 1 -6.925134,8.448654 13.850268,9.7556658 0 0 1 -13.850269,0 13.850268,9.7556658 0 0 1 -6.925134,-8.448655" />
    <path
       style="fill:none;stroke:#fa8e32;stroke-width:6.23448849;stroke-linecap:round;stroke-linejoin:miter;stroke-miterlimit:4;stroke-dasharray:none;stroke-opacity:1"
       d="m 46.721526,20.949733 -5.62667,4.419923 -7.273516,-2.886481"
       id="path933"
       inkscape:connector-curvature="0" />
  </g>
</svg>
